<svg width="115" height="86" viewBox="0 0 115 86" fill="none" xmlns="http://www.w3.org/2000/svg">
<path d="M6.66211 63.6719H9.94336L16.1104 80.1221L22.2627 63.6719H25.5439L17.3994 85H14.792L6.66211 63.6719ZM5.16797 63.6719H8.28809L8.83008 77.9102V85H5.16797V63.6719ZM23.918 63.6719H27.0527V85H23.376V77.9102L23.918 63.6719ZM30.4426 77.251V76.9141C30.4426 75.7715 30.6086 74.7119 30.9406 73.7354C31.2727 72.749 31.7512 71.8945 32.3762 71.1719C33.0109 70.4395 33.7824 69.873 34.6906 69.4727C35.6086 69.0625 36.6437 68.8574 37.7961 68.8574C38.9582 68.8574 39.9934 69.0625 40.9016 69.4727C41.8195 69.873 42.5959 70.4395 43.2307 71.1719C43.8654 71.8945 44.3488 72.749 44.6809 73.7354C45.0129 74.7119 45.1789 75.7715 45.1789 76.9141V77.251C45.1789 78.3936 45.0129 79.4531 44.6809 80.4297C44.3488 81.4062 43.8654 82.2607 43.2307 82.9932C42.5959 83.7158 41.8244 84.2822 40.9162 84.6924C40.008 85.0928 38.9777 85.293 37.8254 85.293C36.6633 85.293 35.6232 85.0928 34.7053 84.6924C33.7971 84.2822 33.0256 83.7158 32.3908 82.9932C31.7561 82.2607 31.2727 81.4062 30.9406 80.4297C30.6086 79.4531 30.4426 78.3936 30.4426 77.251ZM33.9729 76.9141V77.251C33.9729 77.9639 34.0461 78.6377 34.1926 79.2725C34.3391 79.9072 34.5686 80.4639 34.8811 80.9424C35.1936 81.4209 35.5939 81.7969 36.0822 82.0703C36.5705 82.3438 37.1516 82.4805 37.8254 82.4805C38.4797 82.4805 39.0461 82.3438 39.5246 82.0703C40.0129 81.7969 40.4133 81.4209 40.7258 80.9424C41.0383 80.4639 41.2678 79.9072 41.4143 79.2725C41.5705 78.6377 41.6486 77.9639 41.6486 77.251V76.9141C41.6486 76.2109 41.5705 75.5469 41.4143 74.9219C41.2678 74.2871 41.0334 73.7256 40.7111 73.2373C40.3986 72.749 39.9982 72.3682 39.51 72.0947C39.0314 71.8115 38.4602 71.6699 37.7961 71.6699C37.132 71.6699 36.5559 71.8115 36.0676 72.0947C35.5891 72.3682 35.1936 72.749 34.8811 73.2373C34.5686 73.7256 34.3391 74.2871 34.1926 74.9219C34.0461 75.5469 33.9729 76.2109 33.9729 76.9141ZM53.1098 82.2021L56.9916 69.1504H60.6537L55.1459 85H52.8607L53.1098 82.2021ZM50.1361 69.1504L54.0912 82.2607L54.2816 85H51.9965L46.4594 69.1504H50.1361ZM66.6656 69.1504V85H63.1207V69.1504H66.6656ZM62.8863 64.9902C62.8863 64.4531 63.0621 64.0088 63.4137 63.6572C63.775 63.2959 64.273 63.1152 64.9078 63.1152C65.5328 63.1152 66.026 63.2959 66.3873 63.6572C66.7486 64.0088 66.9293 64.4531 66.9293 64.9902C66.9293 65.5176 66.7486 65.957 66.3873 66.3086C66.026 66.6602 65.5328 66.8359 64.9078 66.8359C64.273 66.8359 63.775 66.6602 63.4137 66.3086C63.0621 65.957 62.8863 65.5176 62.8863 64.9902ZM77.5701 85.293C76.3982 85.293 75.3387 85.1025 74.3914 84.7217C73.4539 84.3311 72.6531 83.7891 71.9891 83.0957C71.3348 82.4023 70.8318 81.5869 70.4803 80.6494C70.1287 79.7119 69.9529 78.7012 69.9529 77.6172V77.0312C69.9529 75.791 70.1336 74.668 70.4949 73.6621C70.8562 72.6562 71.3592 71.7969 72.0037 71.084C72.6482 70.3613 73.41 69.8096 74.2889 69.4287C75.1678 69.0479 76.1199 68.8574 77.1453 68.8574C78.2781 68.8574 79.2693 69.0479 80.1189 69.4287C80.9686 69.8096 81.6717 70.3467 82.2283 71.04C82.7947 71.7236 83.2146 72.5391 83.4881 73.4863C83.7713 74.4336 83.9129 75.4785 83.9129 76.6211V78.1299H71.6668V75.5957H80.4266V75.3174C80.407 74.6826 80.2801 74.0869 80.0457 73.5303C79.8211 72.9736 79.4744 72.5244 79.0057 72.1826C78.5369 71.8408 77.9119 71.6699 77.1307 71.6699C76.5447 71.6699 76.0223 71.7969 75.5633 72.0508C75.1141 72.2949 74.7381 72.6514 74.4353 73.1201C74.1326 73.5889 73.8982 74.1553 73.7322 74.8193C73.576 75.4736 73.4978 76.2109 73.4978 77.0312V77.6172C73.4978 78.3105 73.5906 78.9551 73.7762 79.5508C73.9715 80.1367 74.2547 80.6494 74.6258 81.0889C74.9969 81.5283 75.4461 81.875 75.9734 82.1289C76.5008 82.373 77.1014 82.4951 77.7752 82.4951C78.6248 82.4951 79.3816 82.3242 80.0457 81.9824C80.7098 81.6406 81.2859 81.1572 81.7742 80.5322L83.6346 82.334C83.2928 82.832 82.8484 83.3105 82.3016 83.7695C81.7547 84.2188 81.0857 84.585 80.2947 84.8682C79.5135 85.1514 78.6053 85.293 77.5701 85.293ZM95.6084 80.708C95.6084 80.3564 95.5205 80.0391 95.3447 79.7559C95.1689 79.4629 94.832 79.1992 94.334 78.9648C93.8457 78.7305 93.123 78.5156 92.166 78.3203C91.3262 78.1348 90.5547 77.915 89.8516 77.6611C89.1582 77.3975 88.5625 77.0801 88.0645 76.709C87.5664 76.3379 87.1807 75.8984 86.9072 75.3906C86.6338 74.8828 86.4971 74.2969 86.4971 73.6328C86.4971 72.9883 86.6387 72.3779 86.9219 71.8018C87.2051 71.2256 87.6104 70.7178 88.1377 70.2783C88.665 69.8389 89.3047 69.4922 90.0566 69.2383C90.8184 68.9844 91.668 68.8574 92.6055 68.8574C93.9336 68.8574 95.0713 69.082 96.0186 69.5312C96.9756 69.9707 97.708 70.5713 98.2158 71.333C98.7236 72.085 98.9775 72.9346 98.9775 73.8818H95.4473C95.4473 73.4619 95.3398 73.0713 95.125 72.71C94.9199 72.3389 94.6074 72.041 94.1875 71.8164C93.7676 71.582 93.2402 71.4648 92.6055 71.4648C92 71.4648 91.4971 71.5625 91.0967 71.7578C90.7061 71.9434 90.4131 72.1875 90.2178 72.4902C90.0322 72.793 89.9395 73.125 89.9395 73.4863C89.9395 73.75 89.9883 73.9893 90.0859 74.2041C90.1934 74.4092 90.3691 74.5996 90.6133 74.7754C90.8574 74.9414 91.1895 75.0977 91.6094 75.2441C92.0391 75.3906 92.5762 75.5322 93.2207 75.6689C94.4316 75.9229 95.4717 76.25 96.3408 76.6504C97.2197 77.041 97.8936 77.5488 98.3623 78.1738C98.8311 78.7891 99.0654 79.5703 99.0654 80.5176C99.0654 81.2207 98.9141 81.8652 98.6113 82.4512C98.3184 83.0273 97.8887 83.5303 97.3223 83.96C96.7559 84.3799 96.0771 84.707 95.2861 84.9414C94.5049 85.1758 93.626 85.293 92.6494 85.293C91.2139 85.293 89.998 85.0391 89.002 84.5312C88.0059 84.0137 87.249 83.3545 86.7314 82.5537C86.2236 81.7432 85.9697 80.9033 85.9697 80.0342H89.3828C89.4219 80.6885 89.6025 81.2109 89.9248 81.6016C90.2568 81.9824 90.667 82.2607 91.1553 82.4365C91.6533 82.6025 92.166 82.6855 92.6934 82.6855C93.3281 82.6855 93.8604 82.6025 94.29 82.4365C94.7197 82.2607 95.0469 82.0264 95.2715 81.7334C95.4961 81.4307 95.6084 81.0889 95.6084 80.708Z" fill="#FDAE03"/>
<path d="M82.4662 11.7725C82.028 10.0521 81.1355 8.47582 79.8789 7.20285C78.6222 5.92987 77.046 5.00529 75.3093 4.5225C68.964 3 43.5827 3 43.5827 3C43.5827 3 18.2014 3 11.8561 4.6675C10.1194 5.15029 8.54312 6.07487 7.28648 7.34785C6.02985 8.62082 5.13734 10.1971 4.69911 11.9175C3.53783 18.2451 2.96978 24.6641 3.00211 31.0938C2.96071 37.5718 3.5288 44.0397 4.69911 50.415C5.18224 52.0819 6.09474 53.5983 7.34845 54.8175C8.60216 56.0367 10.1547 56.9176 11.8561 57.375C18.2014 59.0425 43.5827 59.0425 43.5827 59.0425C43.5827 59.0425 68.964 59.0425 75.3093 57.375C77.046 56.8922 78.6222 55.9676 79.8789 54.6947C81.1355 53.4217 82.028 51.8454 82.4662 50.125C83.6186 43.845 84.1866 37.475 84.1632 31.0938C84.2046 24.6157 83.6365 18.1478 82.4662 11.7725Z" stroke="#FDAE03" stroke-width="5" stroke-linecap="round" stroke-linejoin="round"/>
<path d="M43.3594 42.0449V46H25.8516V42.625L34.1309 33.748C34.9629 32.8223 35.6191 32.0078 36.0996 31.3047C36.5801 30.5898 36.9258 29.9512 37.1367 29.3887C37.3594 28.8145 37.4707 28.2695 37.4707 27.7539C37.4707 26.9805 37.3418 26.3184 37.084 25.7676C36.8262 25.2051 36.4453 24.7715 35.9414 24.4668C35.4492 24.1621 34.8398 24.0098 34.1133 24.0098C33.3398 24.0098 32.6719 24.1973 32.1094 24.5723C31.5586 24.9473 31.1367 25.4688 30.8438 26.1367C30.5625 26.8047 30.4219 27.5605 30.4219 28.4043H25.3418C25.3418 26.8809 25.7051 25.4863 26.4316 24.2207C27.1582 22.9434 28.1836 21.9297 29.5078 21.1797C30.832 20.418 32.4023 20.0371 34.2188 20.0371C36.0117 20.0371 37.5234 20.3301 38.7539 20.916C39.9961 21.4902 40.9336 22.3223 41.5664 23.4121C42.2109 24.4902 42.5332 25.7793 42.5332 27.2793C42.5332 28.123 42.3984 28.9492 42.1289 29.7578C41.8594 30.5547 41.4727 31.3516 40.9688 32.1484C40.4766 32.9336 39.8789 33.7305 39.1758 34.5391C38.4727 35.3477 37.6934 36.1855 36.8379 37.0527L32.3906 42.0449H43.3594ZM58.6341 20.4062V46H53.3783V20.4062H58.6341ZM66.5091 20.4062V24.5371H45.6263V20.4062H66.5091Z" fill="#FDAE03"/>
<path d="M112 16.182L85.8406 31.0115L112 45.8411V16.182Z" stroke="#FDAE03" stroke-width="5" stroke-linecap="round" stroke-linejoin="round"/>
</svg>
